<svg width="46" height="48" viewBox="0 0 46 48" fill="none" xmlns="http://www.w3.org/2000/svg">
<g filter="url(#filter0_d_6_77)">
<path d="M35.5 37L39 40L38.5 37L35.5 34L19.5 34L17 31.5L17 23L17 18.75L17 16.625L15 14.5L14 14.5L11 14.5L13.5 17L13.5 33.5L17 37L35.5 37Z" fill="white"/>
<path d="M35.5 37L39 40L38.5 37L35.5 34L19.5 34L17 31.5L17 23L17 18.75L17 16.625L15 14.5L14 14.5L11 14.5L13.5 17L13.5 33.5L17 37L35.5 37Z" fill="white"/>
<path d="M10.5 9L7 6L7.5 9L10.5 12H26.5L29 14.5V23V27.25V29.375L31 31.5H32H35L32.5 29V12.5L29 9H10.5Z" fill="white"/>
<path d="M10.5 9L7 6L7.5 9L10.5 12H26.5L29 14.5V23V27.25V29.375L31 31.5H32H35L32.5 29V12.5L29 9H10.5Z" fill="white"/>
</g>
<defs>
<filter id="filter0_d_6_77" x="0" y="0" width="46" height="48" filterUnits="userSpaceOnUse" color-interpolation-filters="sRGB">
<feFlood flood-opacity="0" result="BackgroundImageFix"/>
<feColorMatrix in="SourceAlpha" type="matrix" values="0 0 0 0 0 0 0 0 0 0 0 0 0 0 0 0 0 0 127 0" result="hardAlpha"/>
<feOffset dy="1"/>
<feGaussianBlur stdDeviation="3.5"/>
<feColorMatrix type="matrix" values="0 0 0 0 0 0 0 0 0 0 0 0 0 0 0 0 0 0 0.25 0"/>
<feBlend mode="normal" in2="BackgroundImageFix" result="effect1_dropShadow_6_77"/>
<feBlend mode="normal" in="SourceGraphic" in2="effect1_dropShadow_6_77" result="shape"/>
</filter>
</defs>
</svg>
