<svg width="33" height="33" viewBox="0 0 33 33" fill="none" xmlns="http://www.w3.org/2000/svg">
<path d="M17.8148 2.10632L2.08054 9.82007V23.6285L15.1851 31.2159L30.9194 22.4452V8.63671L17.8148 2.10632Z" fill="url(#paint0_linear_6_91)"/>
<path d="M9.91547 17.2786L7.33735 15.9406C6.83461 15.6802 6.34735 15.8813 6.26485 16.4176C6.1643 16.9719 6.52008 17.6086 7.05117 17.9051L9.7943 19.3411C9.94641 19.4133 10.1037 19.4494 10.2455 19.4468C10.5806 19.4314 10.8075 19.189 10.823 18.7946C10.8565 18.2351 10.4595 17.5803 9.91547 17.2786Z" fill="#593E37"/>
<path d="M10.0521 16.3582L7.38632 14.9274V12.4962L10.0031 13.7982L10.0521 16.3582Z" fill="#A17F69"/>
<path d="M9.87679 28.1171L7.38632 26.6733V23.7549L9.87679 25.2399V28.1171Z" fill="#A17F69"/>
<path d="M2.08054 9.82007L15.2083 16.3401L30.9194 8.51554L17.8148 2.10632L2.08054 9.82007Z" fill="#FFE082"/>
<path d="M25.5621 5.90131L22.9969 4.62256L7.40955 12.4962L10.0031 13.7981L25.5621 5.90131Z" fill="#C99470"/>
<path d="M15.2084 16.3402V31.2417L30.9195 22.4452V8.63672L15.2084 16.3402Z" fill="url(#paint1_linear_6_91)"/>
<path opacity="0.2" d="M17.8174 2.95448L30.1486 8.98729V21.981L15.2264 30.3342L2.85397 23.1696V10.2892L17.8174 2.95448ZM17.8148 2.09338L2.08054 9.80714V23.6156L15.1851 31.203L15.2083 31.1901V31.2288L30.9194 22.4322V8.62378L30.7983 8.56448L30.9194 8.50518L17.8148 2.09338Z" fill="#444444"/>
<defs>
<linearGradient id="paint0_linear_6_91" x1="16.5" y1="1.67578" x2="16.5" y2="30.9581" gradientUnits="userSpaceOnUse">
<stop offset="0.006" stop-color="#FFE2B8"/>
<stop offset="0.922" stop-color="#FFA726"/>
</linearGradient>
<linearGradient id="paint1_linear_6_91" x1="23.0637" y1="14.7598" x2="23.0637" y2="29.3442" gradientUnits="userSpaceOnUse">
<stop offset="0.011" stop-color="#FFAF39"/>
<stop offset="0.927" stop-color="#DE8400"/>
</linearGradient>
</defs>
</svg>
